<?xml version="1.0" encoding="utf-8"?>
<!-- Generator: Adobe Illustrator 20.1.0, SVG Export Plug-In . SVG Version: 6.00 Build 0)  -->
<svg version="1.1" xmlns="http://www.w3.org/2000/svg" xmlns:xlink="http://www.w3.org/1999/xlink" x="0px" y="0px"
	 viewBox="0 0 1280 800" style="enable-background:new 0 0 1280 800;" xml:space="preserve">
<style type="text/css">
	.st0{opacity:0.24;}
	.st1{fill:#EAEAEA;}
	.st2{opacity:0.76;enable-background:new    ;}
	.st3{fill:#FFFFFF;}
	.st4{fill:#B79A72;}
	.st5{fill:#C6C6C6;}
	.st6{font-family:'NeutraText-DemiSCAlt';}
	.st7{font-size:40px;}
	.st8{fill:none;stroke:#000000;stroke-width:0.75;stroke-miterlimit:10;}
	.st9{font-family:'DINPro-Light';}
	.st10{font-size:21px;}
	.st11{fill:none;}
	.st12{font-family:'DINPro-Regular';}
	.st13{font-size:20px;}
	.st14{font-size:18px;}
	.st15{fill:none;stroke:#B79A72;stroke-width:2.8346;stroke-miterlimit:10;}
	.st16{fill:none;stroke:#B79A72;stroke-miterlimit:10;}
	.st17{fill-rule:evenodd;clip-rule:evenodd;fill:#C6C6C6;}
	.st18{font-size:52px;}
	.st19{letter-spacing:5;}
</style>
<g id="grille_bootstrap">
	<g id="_x31_280_GRID.psd_1_" class="st0">
		
			<image style="overflow:visible;" width="1280" height="1024" id="BG__x2B__COLMS_1_" xlink:href="B248EC913D2E3AF8.png"  transform="matrix(1 0 0 0.8418 -2 -33.45)">
		</image>
	</g>
</g>
<g id="Calque_1">
	<rect y="141.5" class="st1" width="1280" height="658.5"/>
	<rect x="-16.4" y="509.1" class="st2" width="1327.4" height="304.5"/>
	<rect y="-9" width="1280" height="151"/>
	<rect x="859" y="156" width="188.6" height="64"/>
	<rect x="1068.1" y="156" class="st3" width="189.9" height="64"/>
	<rect x="859" y="248" class="st4" width="187.6" height="64"/>
	<rect x="1068.1" y="248" class="st5" width="189.9" height="64"/>
	<text transform="matrix(1 0 0 1 18 220)" class="st4 st6 st7">PRÉSENTATION</text>
	
		<image style="overflow:visible;enable-background:new    ;" width="1500" height="939" xlink:href="B248EC913D2E3AFF.jpeg"  transform="matrix(0.2655 0 0 0.2655 440.1005 532.8588)">
	</image>
	<rect x="858.5" y="343.6" class="st8" width="188.6" height="62.9"/>
	<text transform="matrix(1 0 0 1 908.9847 384.5001)" class="st9 st10">ACCUEIL</text>
	<text transform="matrix(1 0 0 1 900.0898 471.5466)" class="st9 st10">GALLERIE</text>
	<rect x="858" y="429.8" class="st8" width="188.1" height="63.7"/>
	
		<image style="overflow:visible;enable-background:new    ;" width="192" height="188" xlink:href="B248EC913D2E3AF9.png"  transform="matrix(0.425 0 0 0.425 19 27.25)">
	</image>
	<rect x="49" y="251" class="st11" width="471" height="224"/>
	<text transform="matrix(1 0 0 1 49 265.2398)" class="st12 st13">Que vous soyez un particulier ou un professionnel, </text>
	<text transform="matrix(1 0 0 1 49 295.2398)" class="st12 st13">l&apos;agence Pauline Bonnet d&apos;intérieur située en </text>
	<text transform="matrix(1 0 0 1 49 325.2398)" class="st12 st13">Normandie, vous propose de nombreuses </text>
	<text transform="matrix(1 0 0 1 49 355.2398)" class="st12 st13">prestations en architecture intérieure, en décoration </text>
	<text transform="matrix(1 0 0 1 49 385.2398)" class="st12 st13">et en home staging pour vous permettre de donner </text>
	<text transform="matrix(1 0 0 1 49 415.2398)" class="st12 st13">vie à vos projets de construction ou de rénovation.</text>
	<text transform="matrix(1 0 0 1 24 317.8159)" class="st9 st14"> </text>
	<text transform="matrix(1 0 0 1 24 452.8159)" class="st9 st14"> </text>
	<line class="st15" x1="19.1" y1="252.6" x2="19.1" y2="414.6"/>
	<rect x="1069" y="344" class="st4" width="83.6" height="64"/>
	<rect x="1069" y="430" class="st4" width="82.6" height="64"/>
	<path id="XMLID_19_" class="st3" d="M1113.3,369.3v-2.8c0-1.4,0.9-1.7,1.6-1.7c0.6,0,4,0,4,0v-6.1l-5.5,0c-6.1,0-7.5,4.5-7.5,7.4
		v3.2h-3.5v4.3v2.8h3.6c0,8,0,17.8,0,17.8h7.1c0,0,0-9.8,0-17.8h5.3l0.3-2.8l0.4-4.3H1113.3z"/>
	<path class="st3" d="M1121.3,444.6h-22.6c-3.9,0-7.1,3.2-7.1,7.1v7.5v2.8v12.3c0,3.9,3.2,7.1,7.1,7.1h22.6c3.9,0,7.1-3.2,7.1-7.1
		V462v-2.8v-7.5C1128.5,447.8,1125.3,444.6,1121.3,444.6z M1123.4,448.8l0.8,0v0.8v5.4l-6.2,0l0-6.3L1123.4,448.8z M1104.7,459.3
		c1.2-1.6,3.1-2.7,5.3-2.7c2.2,0,4.1,1.1,5.3,2.7c0.1,0.2,0.3,0.4,0.4,0.6c0.5,0.9,0.8,2,0.8,3.2c0,3.6-2.9,6.5-6.5,6.5
		c-3.6,0-6.5-2.9-6.5-6.5c0-1.2,0.3-2.2,0.8-3.2C1104.5,459.7,1104.6,459.5,1104.7,459.3z M1124.9,474.4c0,2-1.6,3.5-3.5,3.5h-22.6
		c-2,0-3.5-1.6-3.5-3.5v-13.2v-1.9h5.5c-0.1,0.3-0.3,0.7-0.4,1c-0.2,0.9-0.4,1.8-0.4,2.7c0,5.6,4.5,10.1,10.1,10.1
		s10.1-4.5,10.1-10.1c0-1-0.1-1.9-0.4-2.7c-0.1-0.4-0.2-0.7-0.4-1h5.5v1.9V474.4z"/>
	<text transform="matrix(1 0 0 1 1050.0698 33.6589)" class="st3 st12 st13">Tuile Graphique</text>
	<text transform="matrix(1 0 0 1 1048.5704 63.157)" class="st3 st12 st13">Leslie BARAT</text>
	<text transform="matrix(1 0 0 1 1049.5444 119.1706)" class="st3 st12 st13">Enseignant : M. BEAU</text>
	<text transform="matrix(1 0 0 1 1048.0195 91.1867)" class="st3 st12 st13">Licence ATC : 2016-2017</text>
	
		<image style="overflow:visible;" width="960" height="618" xlink:href="../13406987_10153439936157303_3172660163115241945_n.jpg"  transform="matrix(0.4155 0 0 0.4155 18.2573 533.6337)">
	</image>
	
		<image style="overflow:visible;" width="960" height="602" xlink:href="../13418713_10153439936162303_5931129884370033477_n.jpg"  transform="matrix(0.4135 0 0 0.4135 860.0792 534.6337)">
	</image>
	<text transform="matrix(1 0 0 1 540.0953 258.6476)" class="st4 st12 st13">Nos réalisations</text>
	<line class="st16" x1="541.1" y1="263.1" x2="685.1" y2="263.1"/>
	<text transform="matrix(1 0 0 1 541.5952 308.1449)" class="st4 st12 st13">Nos partenaires</text>
	<line class="st16" x1="543.6" y1="314.2" x2="687.6" y2="314.2"/>
	<rect x="1174" y="344.5" width="83.6" height="64"/>
	<rect x="1174" y="429" width="83.6" height="64"/>
	<path class="st17" d="M1224.3,353.9l-23.6,23.5c-0.2,0.3-0.2,0.7,0,1l23.6,23.5c0.2,0.3,0.7,0.3,0.9,0l3.1-3l-20.4-20.5
		c-0.4-0.2-0.4-0.7,0-1l20.4-20.4l-3.1-3.1C1225,353.5,1224.6,353.5,1224.3,353.9L1224.3,353.9z"/>
	<path class="st17" d="M1208.2,437.9l23.6,23.5c0.2,0.3,0.2,0.7,0,1l-23.6,23.5c-0.2,0.3-0.7,0.3-0.9,0l-3.1-3l20.4-20.5
		c0.4-0.2,0.4-0.7,0-1l-20.4-20.4l3.1-3.1C1207.5,437.5,1208,437.5,1208.2,437.9L1208.2,437.9z"/>
	<text transform="matrix(1 0 0 1 441 84.55)" class="st3 st12 st18 st19">BIENVENUE</text>
</g>
</svg>
